<svg width="80" height="80" viewBox="0 0 80 80" fill="none" xmlns="http://www.w3.org/2000/svg">
<g clip-path="url(#clip0_306_952)">
<path d="M39.4999 1.56781C60.3289 1.56781 77.37 17.9621 77.37 37.9999C77.37 58.0377 60.3289 74.4322 39.4999 74.4322C18.671 74.4322 1.62939 58.0377 1.62939 37.9999C1.62939 17.9621 18.671 1.56781 39.4999 1.56781Z" fill="url(#paint0_linear_306_952)"/>
<path d="M77.6261 28.1723C74.8866 18.3366 68.3635 10.1344 59.2585 5.07724C53.2924 1.76353 46.4973 0.0119629 39.6083 0.0119629C25.4582 0.0119629 12.3036 7.28466 5.27739 18.9921C0.0206541 27.7511 -1.3657 37.9921 1.37399 47.8281C4.11369 57.6643 10.6369 65.8661 19.7418 70.9231C21.0084 71.6267 22.3128 72.2592 23.6475 72.8201H23.035C22.1257 72.8201 21.3885 73.5295 21.3885 74.4041C21.3885 75.279 22.1257 75.9881 23.035 75.9881L39.3724 75.9882C39.3789 75.9882 39.3853 75.9884 39.392 75.9884C39.3984 75.9884 39.4048 75.9882 39.4113 75.9882L55.9655 75.9884C56.8747 75.9884 57.612 75.279 57.612 74.4044C57.612 73.5298 56.8747 72.8204 55.9655 72.8204H55.2313C62.8946 69.6208 69.4448 64.1368 73.7229 57.0087C78.9793 48.2491 80.3658 38.0082 77.6261 28.1723ZM70.8708 55.4244C64.4343 66.149 52.3811 72.8133 39.4113 72.82H39.3724C33.067 72.8167 26.8487 71.2122 21.3883 68.1792C13.045 63.5453 7.06708 56.0266 4.55513 47.0082C2.04302 37.9894 3.31242 28.6025 8.12942 20.576C14.569 9.84595 26.6312 3.18006 39.6084 3.18006C45.9204 3.18006 52.1461 4.78482 57.6123 7.82081C74.9097 17.4286 80.8575 38.7835 70.8708 55.4244Z" fill="white"/>
<path d="M18.095 36.416H36.2065C37.1158 36.416 37.853 35.7066 37.853 34.832V17.4081C37.853 16.5334 37.1156 15.8242 36.2065 15.8242H18.095C17.1857 15.8242 16.4485 16.5335 16.4485 17.4081V34.8319C16.4485 35.7066 17.1859 36.416 18.095 36.416ZM19.7416 18.9921H34.5602V33.2479H19.7416C19.7416 33.2479 19.7416 18.9921 19.7416 18.9921Z" fill="white"/>
<path d="M29.6208 22.1599H24.6812C23.7717 22.1599 23.0347 22.8693 23.0347 23.7439V28.4958C23.0347 29.3706 23.7719 30.0798 24.6812 30.0798H29.6208C30.5301 30.0798 31.2673 29.3704 31.2673 28.4958V23.7439C31.2673 22.869 30.5301 22.1599 29.6208 22.1599ZM27.9742 26.9118H26.3277V25.328H27.9742V26.9118Z" fill="white"/>
<path d="M49.379 30.0798H54.3189C55.2281 30.0798 55.9654 29.3704 55.9654 28.4958V23.7439C55.9654 22.8691 55.228 22.1599 54.3189 22.1599H49.379C48.4698 22.1599 47.7325 22.8693 47.7325 23.7439V28.4958C47.7325 29.3706 48.4698 30.0798 49.379 30.0798ZM51.0255 25.3279H52.6722V26.9117H51.0255V25.3279Z" fill="white"/>
<path d="M29.6208 45.92H24.6812C23.7717 45.92 23.0347 46.6294 23.0347 47.504V52.2558C23.0347 53.1305 23.7719 53.8398 24.6812 53.8398H29.6208C30.5301 53.8398 31.2673 53.1304 31.2673 52.2558V47.504C31.2673 46.6293 30.5301 45.92 29.6208 45.92ZM27.9742 50.6718H26.3277V49.0881H27.9742V50.6718Z" fill="white"/>
<path d="M60.9047 39.5843H54.4832C53.5739 39.5843 52.8367 40.2937 52.8367 41.1683C52.8367 42.043 53.5741 42.7522 54.4832 42.7522H59.2582V47.3453C59.2582 48.2201 59.9956 48.9293 60.9047 48.9293C61.814 48.9293 62.5512 48.2199 62.5512 47.3453V41.1683C62.5514 40.2935 61.8141 39.5843 60.9047 39.5843Z" fill="white"/>
<path d="M60.9046 50.83C59.9954 50.83 59.2581 51.5394 59.2581 52.414V57.008H44.4396V54.9487C44.4396 54.0738 43.7024 53.3647 42.7931 53.3647C41.8838 53.3647 41.1466 54.074 41.1466 54.9487V58.592C41.1466 59.4667 41.8838 60.1759 42.7931 60.1759H60.9046C61.8139 60.1759 62.5511 59.4666 62.5511 58.592V52.414C62.5513 51.5393 61.8141 50.83 60.9046 50.83Z" fill="white"/>
<path d="M49.2143 39.5843H42.7931C41.8838 39.5843 41.1466 40.2937 41.1466 41.1683V49.8179C41.1466 49.8283 41.1482 49.8385 41.1483 49.8489C41.1482 49.8593 41.1466 49.8695 41.1466 49.8799C41.1466 50.7547 41.8838 51.4639 42.7931 51.4639H46.0863C46.9957 51.4639 47.7328 50.7545 47.7328 49.8799C47.7328 49.0052 46.9955 48.2959 46.0863 48.2959H44.4398V42.7522H49.2145C50.1238 42.7522 50.861 42.0429 50.861 41.1683C50.8608 40.2935 50.1238 39.5843 49.2143 39.5843Z" fill="white"/>
<path d="M49.7083 49.8802C49.7083 50.7549 50.4456 51.4642 51.3548 51.4642H52.3426C53.2518 51.4642 53.9891 50.7548 53.9891 49.8802C53.9891 49.0054 53.2517 48.2962 52.3426 48.2962H51.3548C50.4456 48.2961 49.7083 49.0053 49.7083 49.8802Z" fill="white"/>
<path d="M31.8292 65.5408C27.7759 64.4958 24.0667 62.643 20.8948 60.1761H36.2066C37.1159 60.1761 37.8531 59.4667 37.8531 58.5921V41.1684C37.8531 40.2936 37.1158 39.5844 36.2066 39.5844H18.095C17.1857 39.5844 16.4485 40.2938 16.4485 41.1684V55.8989C13.8844 52.8473 11.9583 49.2792 10.872 45.3799C10.6366 44.535 9.73331 44.0329 8.85551 44.2597C7.9771 44.4863 7.45573 45.3548 7.69119 46.1997C10.7264 57.0969 19.6489 65.6806 30.9767 68.601C31.1195 68.6379 31.263 68.6554 31.404 68.6554C32.1309 68.6554 32.7964 68.1886 32.9934 67.481C33.2289 66.6358 32.7075 65.7673 31.8292 65.5408ZM19.7416 42.7524H34.5601V57.0082H19.7416C19.7416 57.0082 19.7416 42.7524 19.7416 42.7524Z" fill="white"/>
<path d="M48.0232 7.39888C47.1455 7.17251 46.2421 7.67408 46.0067 8.51899C45.7712 9.3639 46.2926 10.2326 47.171 10.4591C51.2247 11.5042 54.9338 13.3572 58.106 15.8242H42.7931C41.8838 15.8242 41.1466 16.5336 41.1466 17.4082V34.8319C41.1466 35.7067 41.8838 36.4159 42.7931 36.4159H60.9046C61.8139 36.4159 62.5511 35.7065 62.5511 34.8319V20.1007C65.1155 23.1523 67.0416 26.7207 68.1276 30.62C68.3246 31.3277 68.9899 31.7946 69.717 31.7946C69.8579 31.7946 70.0015 31.7771 70.1441 31.7401C71.0225 31.5137 71.5439 30.6452 71.3084 29.8002C68.2737 18.9028 59.3513 10.3192 48.0232 7.39888ZM59.2581 33.2479H44.4396V18.9921H59.2581V33.2479Z" fill="white"/>
<path d="M38.5161 66.4964C38.0986 66.4826 37.6836 66.4611 37.2825 66.4323C36.3742 66.3663 35.5854 67.0212 35.5174 67.8934C35.4493 68.7659 36.1295 69.5261 37.0361 69.5915C37.4817 69.6237 37.9417 69.6478 38.404 69.6628C38.4231 69.6634 38.4421 69.6637 38.4611 69.6637C39.3444 69.6637 40.0753 68.9895 40.1057 68.1337C40.1367 67.2591 39.425 66.5263 38.5161 66.4964Z" fill="white"/>
<path d="M41.8424 9.57199C42.6958 9.57199 43.4176 8.93831 43.4825 8.10632C43.5506 7.23395 42.8704 6.47365 41.9638 6.40819C41.5208 6.37643 41.061 6.35208 40.5969 6.33679C39.685 6.30636 38.9258 6.99066 38.8942 7.8651C38.8626 8.73955 39.5739 9.47268 40.4828 9.50296C40.903 9.51692 41.3185 9.53874 41.7175 9.56739C41.7595 9.57036 41.8012 9.57199 41.8424 9.57199Z" fill="white"/>
</g>
<defs>
<linearGradient id="paint0_linear_306_952" x1="39.4997" y1="1.56781" x2="39.4997" y2="74.4322" gradientUnits="userSpaceOnUse">
<stop stop-color="#BAAAEA"/>
<stop offset="0.489583" stop-color="#F38484"/>
<stop offset="0.677083" stop-color="#FFCC4D"/>
<stop offset="1" stop-color="#50A5E6"/>
</linearGradient>
<clipPath id="clip0_306_952">
<rect width="79" height="76" fill="white"/>
</clipPath>
</defs>
</svg>
