<svg width="208" height="96" viewBox="0 0 208 96" fill="none" xmlns="http://www.w3.org/2000/svg">
<g clip-path="url(#clip0_305_950)">
<rect width="208" height="96" fill="url(#paint0_linear_305_950)"/>
<path d="M204.413 0.000366211H159.586C158.596 0.000366211 157.793 0.671888 157.793 1.50042V2.83089C157.793 6.06141 154.825 8.84131 150.967 8.99355C146.849 9.156 143.448 6.41009 143.448 3.00047V1.50042C143.448 0.671888 142.645 0.000366211 141.655 0.000366211H3.58637C1.6059 0.000366211 0 1.34375 0 3.00047V92.9996C0 94.6564 1.6059 95.9998 3.58637 95.9998H141.655C142.645 95.9998 143.448 95.3282 143.448 94.4997V93.1692C143.448 89.9387 146.416 87.1588 150.274 87.0066C154.392 86.8441 157.793 89.59 157.793 92.9996V94.4997C157.793 95.3282 158.596 95.9998 159.586 95.9998H204.414C206.394 95.9998 208 94.6564 208 92.9996V3.00013C208 1.34341 206.394 0.000366211 204.413 0.000366211ZM154.207 77.9994C154.207 79.6562 152.603 80.9996 150.62 80.9996C148.638 80.9996 147.034 79.6562 147.034 77.9994V71.9996C147.034 70.3428 148.638 68.9995 150.62 68.9995C152.602 68.9995 154.207 70.3428 154.207 71.9996V77.9994ZM154.207 59.9995C154.207 61.6562 152.603 62.9996 150.62 62.9996C148.638 62.9996 147.034 61.6562 147.034 59.9995V53.9996C147.034 52.3429 148.638 50.9995 150.62 50.9995C152.602 50.9995 154.207 52.3429 154.207 53.9996V59.9995ZM154.207 41.9998C154.207 43.6566 152.603 45 150.62 45C148.638 45 147.034 43.6566 147.034 41.9998V36C147.034 34.3432 148.638 32.9999 150.62 32.9999C152.602 32.9999 154.207 34.3432 154.207 36V41.9998ZM154.207 23.9999C154.207 25.6566 152.603 27 150.62 27C148.638 27 147.034 25.6566 147.034 23.9999V18C147.034 16.3433 148.638 14.9999 150.62 14.9999C152.602 14.9999 154.207 16.3433 154.207 18V23.9999Z" fill="#FFDC64"/>
<path d="M154.206 18V23.9998C154.206 25.6566 152.602 27 150.62 27V32.9998C152.602 32.9998 154.206 34.3432 154.206 35.9999V41.9998C154.206 43.6565 152.602 44.9999 150.62 44.9999V50.9998C152.602 50.9998 154.206 52.3432 154.206 53.9999V59.9998C154.206 61.6565 152.602 62.9999 150.62 62.9999V68.9998C152.602 68.9998 154.206 70.3432 154.206 71.9999V77.9998C154.206 79.6565 152.602 80.9999 150.62 80.9999V86.9998C154.581 86.9998 157.792 89.6862 157.792 92.9996V94.4997C157.792 95.3282 158.595 95.9997 159.585 95.9997H204.413C206.393 95.9997 207.999 94.6564 207.999 92.9996V3.00011C207.999 1.34339 206.393 0 204.413 0H159.586C158.595 0 157.793 0.671522 157.793 1.50005V3.00011C157.793 6.31355 154.581 8.99998 150.62 8.99998V14.9999C152.602 15.0002 154.206 16.3432 154.206 18Z" fill="#FFC850"/>
<g clip-path="url(#clip1_305_950)">
<path d="M68.4999 9.6297C89.3289 9.6297 106.37 26.6712 106.37 47.4999C106.37 68.3287 89.3289 85.3703 68.4999 85.3703C47.671 85.3703 30.6294 68.3287 30.6294 47.4999C30.6294 26.6712 47.671 9.6297 68.4999 9.6297Z" fill="#FCD73F"/>
<path d="M106.626 37.2844C103.887 27.0604 97.3636 18.5344 88.2586 13.2777C82.2925 9.83315 75.4975 8.01245 68.6084 8.01245C54.4583 8.01245 41.3037 15.5722 34.2775 27.7418C29.0208 36.8465 27.6344 47.4918 30.3741 57.7161C33.1138 67.9406 39.637 76.4661 48.7419 81.7227C50.0085 82.4541 51.313 83.1115 52.6476 83.6946H52.0351C51.1258 83.6946 50.3886 84.432 50.3886 85.3411C50.3886 86.2505 51.1258 86.9876 52.0351 86.9876L68.3725 86.9878C68.379 86.9878 68.3855 86.9879 68.3921 86.9879C68.3986 86.9879 68.4049 86.9878 68.4114 86.9878L84.9656 86.9879C85.8748 86.9879 86.6121 86.2505 86.6121 85.3414C86.6121 84.4323 85.8748 83.6949 84.9656 83.6949H84.2314C91.8947 80.369 98.445 74.6685 102.723 67.2591C107.979 58.1537 109.366 47.5086 106.626 37.2844ZM99.871 65.6122C93.4345 76.7602 81.3813 83.6875 68.4114 83.6945H68.3725C62.0672 83.6911 55.8488 82.0233 50.3884 78.8705C42.0451 74.0537 36.0672 66.2382 33.5553 56.8638C31.0431 47.489 32.3125 37.7316 37.1295 29.3883C43.5691 18.2346 55.6313 11.3056 68.6086 11.3056C74.9205 11.3056 81.1463 12.9737 86.6124 16.1295C103.91 26.1166 109.858 48.3145 99.871 65.6122Z" fill="white"/>
<path d="M47.0952 45.8535H65.2068C66.116 45.8535 66.8533 45.1161 66.8533 44.207V26.0954C66.8533 25.1861 66.1159 24.4489 65.2068 24.4489H47.0952C46.186 24.4489 45.4487 25.1862 45.4487 26.0954V44.2069C45.4487 45.1161 46.1861 45.8535 47.0952 45.8535ZM48.7419 27.7419H63.5604V42.5604H48.7419C48.7419 42.5604 48.7419 27.7419 48.7419 27.7419Z" fill="white"/>
<path d="M58.6211 31.0347H53.6814C52.772 31.0347 52.0349 31.7721 52.0349 32.6812V37.6207C52.0349 38.5299 52.7721 39.2672 53.6814 39.2672H58.6211C59.5303 39.2672 60.2676 38.5298 60.2676 37.6207V32.6812C60.2676 31.7717 59.5303 31.0347 58.6211 31.0347ZM56.9744 35.9742H55.3279V34.3278H56.9744V35.9742Z" fill="white"/>
<path d="M78.3792 39.2672H83.319C84.2282 39.2672 84.9655 38.5298 84.9655 37.6207V32.6812C84.9655 31.7719 84.2281 31.0347 83.319 31.0347H78.3792C77.4699 31.0347 76.7327 31.7721 76.7327 32.6812V37.6207C76.7327 38.5299 77.4699 39.2672 78.3792 39.2672ZM80.0257 34.3277H81.6723V35.974H80.0257V34.3277Z" fill="white"/>
<path d="M58.6211 55.7327H53.6814C52.772 55.7327 52.0349 56.4701 52.0349 57.3792V62.3185C52.0349 63.2278 52.7721 63.965 53.6814 63.965H58.6211C59.5303 63.965 60.2676 63.2276 60.2676 62.3185V57.3792C60.2676 56.4699 59.5303 55.7327 58.6211 55.7327ZM56.9744 60.672H55.3279V59.0258H56.9744V60.672Z" fill="white"/>
<path d="M89.9047 49.1469H83.4832C82.5739 49.1469 81.8367 49.8842 81.8367 50.7934C81.8367 51.7026 82.5741 52.4399 83.4832 52.4399H88.2582V57.2143C88.2582 58.1235 88.9956 58.8608 89.9047 58.8608C90.814 58.8608 91.5512 58.1234 91.5512 57.2143V50.7934C91.5514 49.8841 90.8141 49.1469 89.9047 49.1469Z" fill="white"/>
<path d="M89.9048 60.8365C88.9955 60.8365 88.2583 61.5739 88.2583 62.483V67.2583H73.4397V65.1178C73.4397 64.2083 72.7025 63.4713 71.7932 63.4713C70.884 63.4713 70.1467 64.2085 70.1467 65.1178V68.9048C70.1467 69.8141 70.884 70.5513 71.7932 70.5513H89.9048C90.814 70.5513 91.5513 69.8139 91.5513 68.9048V62.483C91.5514 61.5737 90.8142 60.8365 89.9048 60.8365Z" fill="white"/>
<path d="M78.2145 49.1469H71.7932C70.884 49.1469 70.1467 49.8842 70.1467 50.7934V59.7844C70.1467 59.7952 70.1483 59.8058 70.1484 59.8166C70.1483 59.8274 70.1467 59.8381 70.1467 59.8489C70.1467 60.7582 70.884 61.4954 71.7932 61.4954H75.0864C75.9958 61.4954 76.7329 60.758 76.7329 59.8489C76.7329 58.9396 75.9957 58.2024 75.0864 58.2024H73.4399V52.4399H78.2146C79.1239 52.4399 79.8611 51.7025 79.8611 50.7934C79.861 49.8841 79.1239 49.1469 78.2145 49.1469Z" fill="white"/>
<path d="M78.7085 59.8492C78.7085 60.7585 79.4459 61.4957 80.355 61.4957H81.3428C82.2521 61.4957 82.9893 60.7583 82.9893 59.8492C82.9893 58.9399 82.2519 58.2027 81.3428 58.2027H80.355C79.4459 58.2025 78.7085 58.9398 78.7085 59.8492Z" fill="white"/>
<path d="M60.8294 76.1279C56.776 75.0417 53.0668 73.1158 49.895 70.5515H65.2068C66.116 70.5515 66.8533 69.8141 66.8533 68.905V50.7935C66.8533 49.8842 66.1159 49.147 65.2068 49.147H47.0951C46.1858 49.147 45.4486 49.8844 45.4486 50.7935V66.1054C42.8845 62.9334 40.9584 59.2244 39.8721 55.1712C39.6367 54.2929 38.7334 53.7711 37.8556 54.0069C36.9772 54.2423 36.4559 55.1451 36.6913 56.0234C39.7265 67.3508 48.649 76.2733 59.9769 79.3089C60.1196 79.3473 60.2631 79.3656 60.4041 79.3656C61.131 79.3656 61.7965 78.8803 61.9935 78.1448C62.229 77.2662 61.7076 76.3634 60.8294 76.1279ZM48.7417 52.44H63.5603V67.2585H48.7417C48.7417 67.2585 48.7417 52.44 48.7417 52.44Z" fill="white"/>
<path d="M77.0233 15.6909C76.1456 15.4556 75.2422 15.977 75.0068 16.8553C74.7713 17.7335 75.2927 18.6365 76.1711 18.8719C80.2248 19.9583 83.9339 21.8844 87.1061 24.4488H71.7932C70.884 24.4488 70.1467 25.1862 70.1467 26.0953V44.2069C70.1467 45.1161 70.884 45.8534 71.7932 45.8534H89.9048C90.814 45.8534 91.5513 45.116 91.5513 44.2069V28.8941C94.1157 32.0662 96.0418 35.7755 97.1277 39.8287C97.3247 40.5644 97.9901 41.0496 98.7171 41.0496C98.858 41.0496 99.0016 41.0314 99.1442 40.993C100.023 40.7577 100.544 39.8549 100.309 38.9765C97.2738 27.649 88.3514 18.7266 77.0233 15.6909ZM88.2583 42.5604H73.4397V27.7418H88.2583V42.5604Z" fill="white"/>
<path d="M67.5164 77.1213C67.0989 77.1069 66.6838 77.0846 66.2828 77.0546C65.3744 76.986 64.5857 77.6667 64.5176 78.5734C64.4496 79.4803 65.1297 80.2705 66.0364 80.3385C66.482 80.372 66.9419 80.397 67.4042 80.4126C67.4234 80.4132 67.4423 80.4135 67.4613 80.4135C68.3447 80.4135 69.0756 79.7127 69.106 78.8232C69.137 77.9141 68.4252 77.1523 67.5164 77.1213Z" fill="white"/>
<path d="M70.8425 17.9499C71.6959 17.9499 72.4177 17.2912 72.4827 16.4263C72.5507 15.5195 71.8706 14.7292 70.9639 14.6612C70.5209 14.6282 70.0611 14.6028 69.597 14.587C68.6851 14.5553 67.926 15.2666 67.8943 16.1756C67.8627 17.0846 68.574 17.8466 69.483 17.8781C69.9031 17.8926 70.3186 17.9153 70.7177 17.9451C70.7596 17.9482 70.8013 17.9499 70.8425 17.9499Z" fill="white"/>
</g>
<g clip-path="url(#clip2_305_950)">
<path d="M133.563 30.3951L129.636 28.3817L127.502 29.2357L128.038 31.4989L131.965 33.5124C132.19 33.6276 132.279 33.9043 132.164 34.1291L127.813 42.6158C127.698 42.8406 127.421 42.9298 127.196 42.8145L123.269 40.8011L121.191 41.5466L121.671 43.9184L125.598 45.9318C127.545 46.9299 129.932 46.1608 130.93 44.214L135.281 35.7273C136.279 33.7805 135.51 31.3932 133.563 30.3951Z" fill="#FFCE2A"/>
<path d="M131.904 23.9581L131.904 23.9579L121.205 16.777L108.725 44.4272L118.77 49.5768L131.904 23.9581Z" fill="#FFAD00"/>
<path d="M111.815 13.659L111.815 13.6589L98.6807 39.2776L108.725 44.4272L122.548 17.4655L111.815 13.659Z" fill="#FFCE2A"/>
<path d="M113.267 20.6669L105.237 36.3796L107.253 37.4097L115.283 21.6971L113.267 20.6669Z" fill="#FDEB95"/>
<path d="M125.347 26.8577L123.332 25.825L115.282 41.5272L117.297 42.5599L125.347 26.8577Z" fill="#FFCE2A"/>
<path d="M132.827 22.1567C133.899 20.0501 133.065 17.4722 130.96 16.3932C130.174 15.9901 129.321 15.8534 128.505 15.9495C128.382 14.1294 127.336 12.4169 125.594 11.524L122.254 14.7302L121.859 18.8085L131.904 23.958L132.827 22.1567Z" fill="#FBD698"/>
<path d="M120.301 11.7437C119.903 11.0249 119.294 10.4123 118.508 10.0092C116.403 8.93022 113.823 9.75819 112.738 11.8579L111.815 13.659L115.091 15.3383L111.74 21.8741C111.251 22.8273 111.628 23.9963 112.581 24.485C113.534 24.9738 114.703 24.5972 115.192 23.6439L118.543 17.1081L121.859 18.8085L125.594 11.5241C123.852 10.6311 121.851 10.7811 120.301 11.7437Z" fill="#FFF1D8"/>
<path d="M120.324 24.2832L119.317 23.7669L114.784 30.9552L111.267 39.4688L112.275 39.9852L120.324 24.2832Z" fill="#FFCE2A"/>
<path d="M119.317 23.7667L118.31 23.2503L110.26 38.9525L111.267 39.4689L119.317 23.7667Z" fill="#FDEB95"/>
</g>
</g>
<defs>
<linearGradient id="paint0_linear_305_950" x1="104" y1="0" x2="104" y2="96" gradientUnits="userSpaceOnUse">
<stop stop-color="#BAAAEA"/>
<stop offset="1" stop-color="#F38484"/>
</linearGradient>
<clipPath id="clip0_305_950">
<rect width="208" height="96" fill="white"/>
</clipPath>
<clipPath id="clip1_305_950">
<rect width="79" height="79" fill="white" transform="translate(29 8)"/>
</clipPath>
<clipPath id="clip2_305_950">
<rect width="36.9752" height="36.9752" fill="white" transform="translate(112.868 5) rotate(27.1429)"/>
</clipPath>
</defs>
</svg>
